<?xml version="1.0" standalone="no"?><svg xmlns="http://www.w3.org/2000/svg" viewBox="0 0 1440 320"><path fill="#ffd1d1" fill-opacity="1" d="M0,192L34.3,192C68.6,192,137,192,206,160C274.3,128,343,64,411,48C480,32,549,64,617,106.7C685.7,149,754,203,823,192C891.4,181,960,107,1029,85.3C1097.1,64,1166,96,1234,101.3C1302.9,107,1371,85,1406,74.7L1440,64L1440,0L1405.7,0C1371.4,0,1303,0,1234,0C1165.7,0,1097,0,1029,0C960,0,891,0,823,0C754.3,0,686,0,617,0C548.6,0,480,0,411,0C342.9,0,274,0,206,0C137.1,0,69,0,34,0L0,0Z"></path></svg>