<?xml version="1.0" standalone="no"?><svg xmlns="http://www.w3.org/2000/svg" viewBox="0 0 1440 320"><path fill="#fe7c7d" fill-opacity="1" d="M0,224L34.3,224C68.6,224,137,224,206,218.7C274.3,213,343,203,411,176C480,149,549,107,617,117.3C685.7,128,754,192,823,229.3C891.4,267,960,277,1029,250.7C1097.1,224,1166,160,1234,133.3C1302.9,107,1371,117,1406,122.7L1440,128L1440,320L1405.7,320C1371.4,320,1303,320,1234,320C1165.7,320,1097,320,1029,320C960,320,891,320,823,320C754.3,320,686,320,617,320C548.6,320,480,320,411,320C342.9,320,274,320,206,320C137.1,320,69,320,34,320L0,320Z"></path></svg>